# xmcd
#
# Track frame offsets: 
#        182
#        15757
#        37765
#        54947
#        75660
#        85587
#        96132
#        110207
#        121187
#
# Disc length: 1966 seconds
#
# Revision: 3
# Processed by: cddbd v1.5.1PL0 Copyright (c) Steve Scherf et al.
# Submitted via: ExactAudioCopy v0.95a5
#
DISCID=5607ac09
DTITLE=Various Artist - Dr. Demento Presents: Spooky Tunes and Scary Melodies
DYEAR=1994
DGENRE=Novelty
TTITLE0=Warren Zevon - Werewolves Of London
TTITLE1=D.J. Jazzy Jeff and The Fresh Prince - A Nightmare On My Street
TTITLE2=Whodini - The Haunted House Rock
TTITLE3=Tubes - Attack Of The Fifty Foot Woman
TTITLE4=The Johny Otis Show - Castin' My Spell
TTITLE5=Lambert, Hendricks and Ross - Halloween Spooks
TTITLE6=Bo Diddley - Bo Meets The Monster
TTITLE7=Allan Sherman - My Son, The Vampire
TTITLE8="Weird Al" Yankovic - Nature Trail To Hell
EXTD=
EXTT0=
EXTT1=
EXTT2=
EXTT3=
EXTT4=
EXTT5=
EXTT6=
EXTT7=
EXTT8=
PLAYORDER=
